HIERARCHY
ROOT Hips
{
	OFFSET 51.775002 4.849502 54.065201
	CHANNELS 6 Xposition Yposition Zposition Xrotation Yrotation Zrotation
	JOINT spine
	{
		OFFSET 0.000000 -0.458068 7.965679
		CHANNELS 3 Xrotation Yrotation Zrotation
		JOINT spine1
		{
			OFFSET 0.000000 -0.000002 10.243099
			CHANNELS 3 Xrotation Yrotation Zrotation
			JOINT spine2
			{
				OFFSET 0.000000 -0.000001 9.814751
				CHANNELS 3 Xrotation Yrotation Zrotation
				JOINT Neck
				{
					OFFSET 0.000000 -1.201384 25.198601
					CHANNELS 3 Xrotation Yrotation Zrotation
					JOINT Head
					{
						OFFSET 0.000000 -0.000001 7.613152
						CHANNELS 3 Xrotation Yrotation Zrotation
						End Site
						{
							OFFSET 0.000000 6.077327 18.428101
						}
					}
				}
				JOINT RightShoulder
				{
					OFFSET -4.132698 0.575449 10.599197
					CHANNELS 3 Xrotation Yrotation Zrotation
					JOINT RightArm
					{
						OFFSET 0.000000 -0.000002 13.901802
						CHANNELS 3 Xrotation Yrotation Zrotation
						JOINT RightArmRoll
						{
							OFFSET 0.000000 -0.000001 7.017891
							CHANNELS 3 Xrotation Yrotation Zrotation
							JOINT RightForeArm
							{
								OFFSET 0.000000 -0.000003 20.440598
								CHANNELS 3 Xrotation Yrotation Zrotation
								JOINT RightForeArmRoll
								{
									OFFSET 0.000000 -0.000001 7.875153
									CHANNELS 3 Xrotation Yrotation Zrotation
									JOINT RightHand
									{
										OFFSET 0.000000 -0.000003 15.803696
										CHANNELS 3 Xrotation Yrotation Zrotation
										End Site
										{
											OFFSET 0.000000 0.000000 0.100006
										}
									}
								}
							}
						}
					}
				}
				JOINT LeftShoulder
				{
					OFFSET 4.132698 0.575449 10.599197
					CHANNELS 3 Xrotation Yrotation Zrotation
					JOINT LeftArm
					{
						OFFSET 0.000000 -0.000002 13.901802
						CHANNELS 3 Xrotation Yrotation Zrotation
						JOINT LeftArmRoll
						{
							OFFSET 0.000000 -0.000001 7.017891
							CHANNELS 3 Xrotation Yrotation Zrotation
							JOINT LeftForeArm
							{
								OFFSET 0.000000 -0.000003 20.440598
								CHANNELS 3 Xrotation Yrotation Zrotation
								JOINT LeftForeArmRoll
								{
									OFFSET 0.000000 -0.000001 7.875153
									CHANNELS 3 Xrotation Yrotation Zrotation
									JOINT LeftHand
									{
										OFFSET 0.000000 -0.000003 15.803696
										CHANNELS 3 Xrotation Yrotation Zrotation
										End Site
										{
											OFFSET 0.000000 0.000000 0.100006
										}
									}
								}
							}
						}
					}
				}
			}
		}
	}
	JOINT RightUpLeg
	{
		OFFSET -7.060478 1.086100 -1.294701
		CHANNELS 3 Xrotation Yrotation Zrotation
		JOINT RightUpLegRoll
		{
			OFFSET 0.000000 -0.000003 18.530800
			CHANNELS 3 Xrotation Yrotation Zrotation
			JOINT RightLeg
			{
				OFFSET 0.000000 0.000003 -22.947601
				CHANNELS 3 Xrotation Yrotation Zrotation
				JOINT RightLegRoll
				{
					OFFSET 0.000000 -0.000003 23.022598
					CHANNELS 3 Xrotation Yrotation Zrotation
					JOINT RightFoot
					{
						OFFSET 0.000000 -0.000003 19.162498
						CHANNELS 3 Xrotation Yrotation Zrotation
						JOINT RightToeBase
						{
							OFFSET 0.000000 -0.000002 16.018799
							CHANNELS 3 Xrotation Yrotation Zrotation
							End Site
							{
								OFFSET 0.006790 0.894205 7.757828
							}
						}
					}
				}
			}
		}
	}
	JOINT LeftUpLeg
	{
		OFFSET 7.060478 1.086100 -1.294701
		CHANNELS 3 Xrotation Yrotation Zrotation
		JOINT LeftUpLegRoll
		{
			OFFSET 0.000000 -0.000003 18.530899
			CHANNELS 3 Xrotation Yrotation Zrotation
			JOINT LeftLeg
			{
				OFFSET 0.000000 -0.000004 22.947502
				CHANNELS 3 Xrotation Yrotation Zrotation
				JOINT LeftLegRoll
				{
					OFFSET 0.000000 -0.000004 23.235504
					CHANNELS 3 Xrotation Yrotation Zrotation
					JOINT LeftFoot
					{
						OFFSET 0.000000 -0.000003 18.949600
						CHANNELS 3 Xrotation Yrotation Zrotation
						JOINT LeftToeBase
						{
							OFFSET 0.000000 -0.000002 16.018799
							CHANNELS 3 Xrotation Yrotation Zrotation
							End Site
							{
								OFFSET -0.030430 0.894206 7.757812
							}
						}
					}
				}
			}
		}
	}
}
MOTION
Frames: 7
Frame Time: 0.041667
52.830605 -36.227821 96.966293 -2.437900 -0.552007 4.877078 -1.861325 0.149562 -0.051817 0.266417 0.300330 -0.092074 1.911495 0.299370 -0.095719 4.457300 5.152863 -1.180736 23.774348 -7.741551 0.619398 -13.287415 -71.239515 -16.123524 -59.748459 -118.099517 -55.582734 0.000001 -0.000000 0.000000 10.152260 -10.485697 0.156830 -0.000001 0.000005 -3.000001 -5.000180 -7.998743 0.000154 -13.730634 62.439670 16.334988 -47.344809 119.420749 54.325904 0.000001 -0.000000 0.000000 16.028294 15.643537 -1.643284 -0.000000 -0.000010 3.000001 -5.000174 7.998834 -0.000162 1.462395 -176.283207 3.325110 -179.999991 0.000005 -1.197996 174.527903 -1.506113 -0.501261 -0.000001 -0.000003 0.036800 68.304139 6.956564 1.998149 25.456959 -7.347528 0.000007 -2.453266 175.358249 -0.554153 -0.000020 -0.000004 -1.104100 -10.268478 1.461983 0.428634 -0.000004 -0.000002 -0.239475 71.450035 -6.887262 -1.954968 25.456906 7.346536 -0.000001 
52.830704 -36.231422 96.968384 -2.438433 -0.550657 4.872061 -1.859915 0.148819 -0.052159 0.270228 0.299153 -0.093501 1.915306 0.298172 -0.097143 4.447444 5.147826 -1.177660 23.780670 -7.739257 0.622456 -13.274899 -71.236633 -16.109601 -59.746854 -118.101689 -55.551698 -0.000002 0.000000 0.000000 10.115329 -10.466088 0.151434 -0.000003 0.000005 -3.000001 -5.000182 -7.998742 0.000154 -13.751103 62.426638 16.358313 -47.315401 119.416090 54.275569 -0.000001 -0.000000 -0.000000 15.980582 15.634325 -1.636857 -0.000001 -0.000010 3.000000 -5.000174 7.998835 -0.000161 1.458395 -176.284205 3.324685 -179.999991 0.000005 -1.197996 174.528395 -1.508099 -0.501438 -0.000001 -0.000003 0.036800 68.304467 6.956588 1.998134 25.456955 -7.347528 0.000007 -2.457987 175.353250 -0.561986 -0.000020 -0.000004 -1.104139 -10.272713 1.469058 0.428611 -0.000005 -0.000002 -0.239213 71.449072 -6.887248 -1.954923 25.456902 7.346537 -0.000001 
52.827301 -36.219822 96.964294 -2.439259 -0.549504 4.866741 -1.858512 0.148069 -0.052520 0.274066 0.297954 -0.094997 1.919145 0.296950 -0.098635 4.437662 5.143219 -1.174254 23.787008 -7.737048 0.625830 -13.260796 -71.233149 -16.093901 -59.743637 -118.104366 -55.518742 -0.000000 -0.000000 0.000000 10.078445 -10.445874 0.145979 -0.000004 0.000005 -3.000000 -5.000183 -7.998743 0.000154 -13.772322 62.413627 16.382533 -47.285546 119.411227 54.225729 -0.000001 0.000001 -0.000000 15.934316 15.626245 -1.630933 -0.000000 -0.000010 3.000001 -5.000174 7.998835 -0.000162 1.454759 -176.285188 3.324523 -179.999991 0.000005 -1.197996 174.528942 -1.510086 -0.500616 -0.000001 -0.000003 0.036800 68.304774 6.956573 1.998111 25.456959 -7.347527 0.000007 -2.462010 175.347294 -0.570127 -0.000020 -0.000004 -1.104179 -10.276550 1.476499 0.428585 -0.000004 -0.000001 -0.238917 71.447884 -6.887237 -1.954995 25.456906 7.346535 -0.000000 
52.817604 -36.214420 96.961594 -2.440303 -0.548487 4.861204 -1.857123 0.147317 -0.052896 0.277923 0.296738 -0.096541 1.922996 0.295713 -0.100177 4.427933 5.138898 -1.170615 23.793451 -7.734896 0.629455 -13.245598 -71.229229 -16.076969 -59.738822 -118.107549 -55.483908 0.000001 0.000000 -0.000000 10.041583 -10.425157 0.140468 -0.000002 0.000005 -3.000001 -5.000183 -7.998744 0.000154 -13.794136 62.400840 16.407439 -47.255388 119.406241 54.176333 0.000001 -0.000001 -0.000000 15.888939 15.618768 -1.625265 0.000004 -0.000010 3.000001 -5.000174 7.998835 -0.000162 1.451380 -176.285188 3.324596 -179.999991 0.000005 -1.197996 174.529543 -1.513079 -0.500887 -0.000001 -0.000003 0.036800 68.305191 6.956569 1.998084 25.456959 -7.347527 0.000008 -2.465555 175.341283 -0.578515 -0.000020 -0.000004 -1.104239 -10.280085 1.484206 0.428553 -0.000004 -0.000002 -0.238602 71.446613 -6.887258 -1.954877 25.456906 7.346537 -0.000001 
52.828503 -36.212528 96.963394 -2.441462 -0.547547 4.855544 -1.855724 0.146562 -0.053278 0.281789 0.295513 -0.098113 1.926865 0.294466 -0.101744 4.418245 5.134748 -1.166844 23.799799 -7.732788 0.633194 -13.229751 -71.225056 -16.059320 -59.733993 -118.110732 -55.449047 0.000002 0.000000 -0.000000 10.004755 -10.404332 0.134983 -0.000004 0.000005 -3.000001 -5.000186 -7.998745 0.000154 -13.816285 62.388136 16.432737 -47.226353 119.400518 54.128580 -0.000000 0.000001 -0.000001 15.844017 15.611721 -1.619755 -0.000001 -0.000010 3.000001 -5.000169 7.998831 -0.000161 1.448153 -176.285188 3.324776 -179.999991 0.000005 -1.197997 174.530157 -1.515066 -0.501061 -0.000001 -0.000003 0.036800 68.305519 6.956593 1.998068 25.456960 -7.347527 0.000008 -2.468803 175.336311 -0.587088 -0.000020 -0.000004 -1.104309 -10.283424 1.492052 0.428516 -0.000004 -0.000002 -0.238272 71.445227 -6.887250 -1.954963 25.456906 7.346537 -0.000002 
52.829498 -36.206814 96.964989 -2.442647 -0.546627 4.849852 -1.854333 0.145807 -0.053662 0.285658 0.294287 -0.099691 1.930735 0.293217 -0.103319 4.408558 5.130626 -1.163040 23.806238 -7.730675 0.636985 -13.213724 -71.220794 -16.041469 -59.727552 -118.114420 -55.412324 0.000000 0.000000 0.000000 9.967934 -10.383300 0.129482 -0.000007 0.000004 -3.000000 -5.000179 -7.998743 0.000154 -13.838471 62.375419 16.458085 -47.195883 119.395395 54.079409 -0.000001 -0.000000 -0.000000 15.799317 15.604750 -1.614314 0.000002 -0.000010 3.000001 -5.000174 7.998833 -0.000161 1.444954 -176.286172 3.324954 -179.999991 0.000005 -1.197996 174.530745 -1.518059 -0.501331 -0.000001 -0.000003 0.036800 68.305935 6.956586 1.998141 25.456959 -7.347527 0.000007 -2.471986 175.330328 -0.595654 -0.000020 -0.000004 -1.104370 -10.286763 1.499938 0.428483 -0.000004 -0.000001 -0.237940 71.443936 -6.887239 -1.954940 25.456906 7.346536 -0.000002 
52.829700 -36.202923 96.966293 -2.443780 -0.545668 4.844223 -1.852937 0.145052 -0.054043 0.289522 0.293065 -0.101258 1.934605 0.291973 -0.104881 4.398860 5.126436 -1.159306 23.812582 -7.728546 0.640684 -13.198051 -71.216709 -16.024013 -59.722723 -118.117603 -55.377466 -0.000000 0.000000 0.000000 9.931105 -10.362457 0.124042 -0.000003 0.000005 -3.000001 -5.000183 -7.998747 0.000153 -13.860467 62.362612 16.483208 -47.166848 119.389671 54.031649 -0.000001 -0.000000 -0.000000 15.754291 15.597594 -1.608787 0.000003 -0.000010 3.000001 -5.000171 7.998835 -0.000162 1.441694 -176.286172 3.325102 -179.999991 0.000005 -1.197996 174.531387 -1.520060 -0.501506 -0.000001 -0.000003 0.036800 68.306345 6.956544 1.998206 25.456957 -7.347529 0.000007 -2.475309 175.324358 -0.604148 -0.000020 -0.000004 -1.104440 -10.290202 1.507745 0.428452 -0.000005 -0.000001 -0.237612 71.442549 -6.887264 -1.954931 25.456906 7.346536 -0.000000 
